<svg id="_x31_" enable-background="new 0 0 24 24" height="512" viewBox="0 0 24 24" width="512" xmlns="http://www.w3.org/2000/svg"><g><path d="m21.5 22h-19c-1.378 0-2.5-1.121-2.5-2.5v-15c0-1.379 1.122-2.5 2.5-2.5h19c1.378 0 2.5 1.121 2.5 2.5v15c0 1.379-1.122 2.5-2.5 2.5zm-19-19c-.827 0-1.5.673-1.5 1.5v15c0 .827.673 1.5 1.5 1.5h19c.827 0 1.5-.673 1.5-1.5v-15c0-.827-.673-1.5-1.5-1.5z"/></g><g><path d="m3.5 10c-.276 0-.5-.224-.5-.5v-2c0-1.379 1.122-2.5 2.5-2.5h2c.276 0 .5.224.5.5s-.224.5-.5.5h-2c-.827 0-1.5.673-1.5 1.5v2c0 .276-.224.5-.5.5z"/></g><g><path d="m18.5 19h-2c-.276 0-.5-.224-.5-.5s.224-.5.5-.5h2c.827 0 1.5-.673 1.5-1.5v-2c0-.276.224-.5.5-.5s.5.224.5.5v2c0 1.379-1.122 2.5-2.5 2.5z"/></g></svg>