<?xml version="1.0" encoding="iso-8859-1"?>
<!-- Generator: Adobe Illustrator 19.0.0, SVG Export Plug-In . SVG Version: 6.00 Build 0)  -->
<svg version="1.1" id="Capa_1" xmlns="http://www.w3.org/2000/svg" xmlns:xlink="http://www.w3.org/1999/xlink" x="0px" y="0px"
	 viewBox="0 0 512.019 512.019" style="enable-background:new 0 0 512.019 512.019;" xml:space="preserve">
<g>
	<g>
		<path d="M463.489,287.993h-64.32c-8.352,0-14.784,6.56-15.744,14.848c-8.48,73.152-78.848,127.648-157.248,109.696
			c-46.208-10.592-83.744-48.064-94.4-94.24c-19.296-83.68,44.064-158.304,124.512-158.304v48c0,6.464,3.904,12.32,9.888,14.784
			s12.832,1.088,17.44-3.488l96-96c6.24-6.24,6.24-16.384,0-22.624l-96-96c-4.608-4.544-11.456-5.92-17.44-3.456
			s-9.888,8.32-9.888,14.784v48c-124.608,0-225.76,102.24-223.968,227.264c1.696,118.848,101.728,218.944,220.576,220.736
			c119.392,1.792,218.08-90.368,226.784-207.168C480.353,295.705,472.641,287.993,463.489,287.993z"/>
	</g>
</g>
<g>
</g>
<g>
</g>
<g>
</g>
<g>
</g>
<g>
</g>
<g>
</g>
<g>
</g>
<g>
</g>
<g>
</g>
<g>
</g>
<g>
</g>
<g>
</g>
<g>
</g>
<g>
</g>
<g>
</g>
</svg>
